<svg id="visual" viewBox="0 0 2000 700" width="2000" height="700" xmlns="http://www.w3.org/2000/svg" xmlns:xlink="http://www.w3.org/1999/xlink" version="1.1"><rect x="0" y="0" width="2000" height="700" fill="#075985"></rect><path d="M0 609L33.3 614C66.7 619 133.3 629 200 614.5C266.7 600 333.3 561 400 551.5C466.7 542 533.3 562 600 585.8C666.7 609.7 733.3 637.3 800 629.3C866.7 621.3 933.3 577.7 1000 576.5C1066.7 575.3 1133.3 616.7 1200 628.5C1266.7 640.3 1333.3 622.7 1400 622.7C1466.7 622.7 1533.3 640.3 1600 644.5C1666.7 648.7 1733.3 639.3 1800 630.5C1866.7 621.7 1933.3 613.3 1966.7 609.2L2000 605L2000 701L1966.7 701C1933.3 701 1866.7 701 1800 701C1733.3 701 1666.7 701 1600 701C1533.3 701 1466.7 701 1400 701C1333.3 701 1266.7 701 1200 701C1133.3 701 1066.7 701 1000 701C933.3 701 866.7 701 800 701C733.3 701 666.7 701 600 701C533.3 701 466.7 701 400 701C333.3 701 266.7 701 200 701C133.3 701 66.7 701 33.3 701L0 701Z" fill="#0c4a6e" stroke-linecap="round" stroke-linejoin="miter"></path></svg>